<svg width="14" height="9" viewBox="0 0 14 9" fill="none"
    xmlns="http://www.w3.org/2000/svg">
    <path d="M0.305919 8.19408C0.501858 8.38996 0.767573 8.5 1.04463 8.5C1.32169 8.5 1.5874 8.38996 1.78334 8.19408L6.95537 3.02205L12.1274 8.19408C12.3245 8.38441 12.5884 8.48973 12.8623 8.48734C13.1363 8.48496 13.3984 8.37508 13.5921 8.18135C13.7858 7.98763 13.8957 7.72557 13.8981 7.45161C13.9005 7.17765 13.7951 6.91372 13.6048 6.71666L7.69408 0.80592C7.49814 0.61004 7.23243 0.5 6.95537 0.5C6.67831 0.5 6.4126 0.61004 6.21666 0.80592L0.305919 6.71666C0.110039 6.9126 0 7.17831 0 7.45537C0 7.73243 0.110039 7.99814 0.305919 8.19408Z" fill="white"/>
</svg>
