<svg width="24" height="24" viewBox="0 0 24 24" fill="none"
    xmlns="http://www.w3.org/2000/svg">
    <path fill-rule="evenodd" clip-rule="evenodd" d="M0 12C-2.34822e-08 13.5759 0.310389 15.1363 0.913446 16.5922C1.5165 18.0481 2.40042 19.371 3.51472 20.4853C4.62902 21.5996 5.95189 22.4835 7.4078 23.0866C8.86371 23.6896 10.4241 24 12 24C13.5759 24 15.1363 23.6896 16.5922 23.0866C18.0481 22.4835 19.371 21.5996 20.4853 20.4853C21.5996 19.371 22.4835 18.0481 23.0866 16.5922C23.6896 15.1363 24 13.5759 24 12C24 8.8174 22.7357 5.76516 20.4853 3.51472C18.2348 1.26428 15.1826 0 12 0C8.8174 0 5.76516 1.26428 3.51472 3.51472C1.26428 5.76516 4.74244e-08 8.8174 0 12ZM22.5882 12C22.5882 14.8082 21.4727 17.5013 19.487 19.487C17.5013 21.4727 14.8082 22.5882 12 22.5882C9.19183 22.5882 6.49867 21.4727 4.51299 19.487C2.52731 17.5013 1.41176 14.8082 1.41176 12C1.41176 9.19183 2.52731 6.49867 4.51299 4.51299C6.49867 2.52731 9.19183 1.41176 12 1.41176C14.8082 1.41176 17.5013 2.52731 19.487 4.51299C21.4727 6.49867 22.5882 9.19183 22.5882 12Z" fill="white"/>
    <path fill-rule="evenodd" clip-rule="evenodd" d="M7.05884 12C7.05884 18.2061 9.0946 23.2941 12 23.2941C14.9054 23.2941 16.9412 18.2061 16.9412 12C16.9412 5.79387 14.9054 0.705872 12 0.705872C9.0946 0.705872 7.05884 5.79387 7.05884 12ZM15.5294 12C15.5294 17.4903 13.7718 21.8823 12 21.8823C10.2282 21.8823 8.4706 17.4903 8.4706 12C8.4706 6.50964 10.2282 2.11764 12 2.11764C13.7718 2.11764 15.5294 6.50964 15.5294 12Z" fill="white"/>
    <path d="M3.15528 5.38206L4.10117 4.33453C4.25222 4.47006 4.41317 4.60277 4.5854 4.73124C6.44611 6.12606 9.38258 6.97594 12.583 6.97594C15.312 6.97594 17.8588 6.359 19.7195 5.29595C20.1482 5.05338 20.5533 4.77121 20.9294 4.45312L21.847 5.52606C21.4263 5.88606 20.9492 6.21783 20.4212 6.51995C18.336 7.71289 15.5478 8.38771 12.583 8.38771C9.09599 8.38771 5.86022 7.45171 3.73834 5.86065C3.53672 5.70969 3.34216 5.55093 3.15528 5.38206ZM3.15528 18.6357L4.10117 19.6804C4.25222 19.5449 4.41317 19.4122 4.5854 19.2851C6.44611 17.8903 9.38258 17.0404 12.583 17.0404C15.312 17.0404 17.8588 17.6559 19.7195 18.7204C20.1727 18.9802 20.5779 19.2625 20.9294 19.5618L21.847 18.4889C21.4038 18.1138 20.9265 17.781 20.4212 17.495C18.336 16.3035 15.5478 15.6286 12.583 15.6286C9.09599 15.6286 5.86022 16.5646 3.73834 18.1543C3.53222 18.3096 3.3374 18.4705 3.15528 18.6357ZM0.705872 12.7063V11.2945H23.2941V12.7063H0.705872Z" fill="white"/>
</svg>
