<svg width="106" height="70" viewBox="0 0 106 70" fill="none"
    xmlns="http://www.w3.org/2000/svg">
    <g clip-path="url(#clip0_1_560)">
        <path d="M0 40.3678V52.5274C0 52.778 0.0626536 53.0117 0.187961 53.2286C0.313268 53.4455 0.481951 53.6166 0.696419 53.7419L11.1523 59.8145C11.3692 59.9398 11.6006 60.0024 11.8488 60.0024C12.097 60.0024 12.3307 59.9398 12.5452 59.8145L22.9987 53.7419C23.2156 53.6166 23.3843 53.4455 23.5096 53.2286C23.6349 53.0117 23.6975 52.7756 23.6975 52.5274V40.3678C23.6975 40.1171 23.6349 39.8834 23.5096 39.6665C23.3843 39.4496 23.2156 39.2785 22.9987 39.1508L12.5452 33.0758C12.3283 32.9505 12.097 32.8879 11.8464 32.8879C11.5957 32.8879 11.3668 32.9505 11.1499 33.0758L0.696419 39.1508C0.479541 39.2761 0.310858 39.4472 0.185551 39.6665C0.0602439 39.8834 0 40.1171 0 40.3678Z" fill="#FFB000"/>
        <path d="M37.8452 16.7762C37.7199 16.5594 37.5512 16.3883 37.3343 16.2605L26.8808 10.188C26.6639 10.0627 26.4326 10 26.182 10C25.9313 10 25.7024 10.0627 25.4855 10.188L15.0296 16.263C14.8127 16.3883 14.644 16.5594 14.5187 16.7786C14.3934 16.9955 14.3332 17.2293 14.3332 17.4799V29.6395C14.3332 29.8901 14.3958 30.1239 14.5187 30.3407C14.644 30.5576 14.8127 30.7287 15.0296 30.854L25.4855 36.9266C25.7024 37.0519 25.9338 37.1146 26.182 37.1146C26.4302 37.1146 26.6639 37.0519 26.8784 36.9266L37.3319 30.854C37.5488 30.7287 37.7174 30.5576 37.8428 30.3407C37.9681 30.1239 38.0307 29.8877 38.0307 29.6395V17.4799C38.0307 17.2293 37.9681 16.9955 37.8428 16.7786L37.8452 16.7762ZM35.9704 28.49C35.9704 28.6925 35.9198 28.8852 35.8162 29.0612C35.7125 29.2371 35.5728 29.3768 35.3969 29.478L26.8254 34.4229C26.6494 34.5241 26.4591 34.5771 26.2542 34.5771C26.0494 34.5771 25.859 34.5265 25.6831 34.4229L17.1116 29.478C16.9357 29.3768 16.796 29.2371 16.6923 29.0612C16.5911 28.8852 16.5381 28.6925 16.5381 28.4876V18.5884C16.5381 18.3835 16.5887 18.1932 16.6923 18.0173C16.796 17.8413 16.9357 17.7016 17.1116 17.6004L25.6831 12.6531C25.859 12.5519 26.0494 12.4989 26.2542 12.4989C26.4591 12.4989 26.6494 12.5495 26.8254 12.6531L35.3969 17.6004C35.5728 17.7016 35.7149 17.8413 35.8162 18.0173C35.9174 18.1932 35.9704 18.3835 35.9704 18.5884V28.4876V28.49Z" fill="#FFB000"/>
        <path d="M33.1269 41.9076H30.7268V48.2476H28.6978V41.9076H26.317V40.2665H33.1245V41.9076H33.1269Z" fill="white"/>
        <path d="M41.7345 48.2476H39.7055V45.1511H36.4018V48.2476H34.3776V40.2761H36.4018V43.5606H39.7055V40.2761H41.7345V48.2476Z" fill="white"/>
        <path d="M49.9518 41.8738H45.7348V43.4546H49.5398V45.0523H45.7348V46.6547H50.0771V48.2524H43.7106V40.2809H49.9518V41.8786V41.8738Z" fill="white"/>
        <path d="M58.5329 40.2111C59.1257 40.2111 59.7089 40.334 60.28 40.5773C60.8535 40.8183 61.3403 41.1436 61.7403 41.5509L60.5716 42.9413C60.3137 42.6232 60.0053 42.3726 59.6438 42.1871C59.2824 41.9991 58.9233 41.9051 58.5643 41.9051C57.9353 41.9051 57.4076 42.1292 56.9835 42.5726C56.5569 43.0136 56.3449 43.5606 56.3449 44.2137C56.3449 44.8667 56.5569 45.4426 56.9835 45.8909C57.4076 46.3367 57.9353 46.5584 58.5643 46.5584C58.8992 46.5584 59.2462 46.4764 59.6077 46.3126C59.9691 46.1463 60.2896 45.9149 60.5716 45.6258L61.7572 46.8813C61.321 47.3198 60.8102 47.6741 60.2198 47.9415C59.6342 48.2066 59.0486 48.3392 58.4631 48.3392C57.2654 48.3392 56.2654 47.9512 55.4653 47.1704C54.6677 46.3873 54.2701 45.4113 54.2701 44.2426C54.2701 43.0738 54.6773 42.1365 55.4894 41.3653C56.3039 40.5966 57.316 40.2111 58.5329 40.2111Z" fill="white"/>
        <path d="M66.8418 40.2111C68.078 40.2111 69.1045 40.5967 69.9239 41.3654C70.7432 42.1365 71.1528 43.098 71.1528 44.2522C71.1528 45.4065 70.7408 46.3849 69.9166 47.1681C69.0925 47.9488 68.0659 48.3368 66.8346 48.3368C65.6032 48.3368 64.5814 47.9488 63.7621 47.1729C62.9404 46.3945 62.5331 45.4186 62.5331 44.2498C62.5331 43.0811 62.9428 42.1244 63.7621 41.3581C64.5814 40.5918 65.608 40.2087 66.8394 40.2087L66.8418 40.2111ZM66.8611 41.9076C66.2393 41.9076 65.7068 42.1341 65.2634 42.5847C64.8248 43.0377 64.6055 43.5968 64.6055 44.2667C64.6055 44.9366 64.8272 45.4957 65.273 45.9535C65.7164 46.4138 66.2466 46.6403 66.8587 46.6403C67.4707 46.6403 67.9961 46.4114 68.425 45.9535C68.8539 45.4957 69.0684 44.9342 69.0684 44.2667C69.0684 43.5992 68.8539 43.0377 68.425 42.5847C67.9961 42.1317 67.4731 41.9076 66.8587 41.9076H66.8611Z" fill="white"/>
        <path d="M74.635 46.5511H78.0183V48.2476H72.6108V40.2761H74.635V46.5511Z" fill="white"/>
        <path d="M83.1534 40.2111C84.3896 40.2111 85.4162 40.5967 86.2355 41.3654C87.0548 42.1365 87.4645 43.098 87.4645 44.2522C87.4645 45.4065 87.0524 46.3849 86.2283 47.1681C85.4041 47.9488 84.3776 48.3368 83.1462 48.3368C81.9148 48.3368 80.8931 47.9488 80.0738 47.1729C79.252 46.3945 78.8448 45.4186 78.8448 44.2498C78.8448 43.0811 79.2544 42.1244 80.0738 41.3581C80.8931 40.5918 81.9196 40.2087 83.151 40.2087L83.1534 40.2111ZM83.1727 41.9076C82.551 41.9076 82.0184 42.1341 81.575 42.5847C81.1365 43.0377 80.9172 43.5968 80.9172 44.2667C80.9172 44.9366 81.1389 45.4957 81.5847 45.9535C82.0281 46.4138 82.5582 46.6403 83.1703 46.6403C83.7824 46.6403 84.3077 46.4114 84.7366 45.9535C85.1656 45.4957 85.38 44.9342 85.38 44.2667C85.38 43.5992 85.1656 43.0377 84.7366 42.5847C84.3077 42.1317 83.7848 41.9076 83.1703 41.9076H83.1727Z" fill="white"/>
        <path d="M96.277 48.2476H94.4889L90.8237 43.3365V48.2476H88.92V40.2761H90.708L94.3829 45.1968V40.2761H96.2746V48.2476H96.277Z" fill="white"/>
        <path d="M102.369 45.674V48.25H100.349V45.7342L97.4023 40.2761H99.4265L101.354 43.751L103.231 40.2761H105.26L102.369 45.674Z" fill="white"/>
    </g>
    <defs>
        <clipPath id="clip0_1_560">
            <rect width="105.26" height="50" fill="white" transform="translate(0 10)"/>
        </clipPath>
    </defs>
</svg>
