<svg width="22" height="24" viewBox="0 0 22 24" fill="none" xmlns="http://www.w3.org/2000/svg">
<path d="M16.9026 3.76C15.9912 2.7195 15.4889 1.38324 15.4893 0H11.3693V16.5333C11.3375 17.428 10.9598 18.2755 10.3157 18.8973C9.67153 19.519 8.81124 19.8665 7.91598 19.8667C6.02265 19.8667 4.44931 18.32 4.44931 16.4C4.44931 14.1067 6.66265 12.3867 8.94265 13.0933V8.88C4.34265 8.26667 0.315979 11.84 0.315979 16.4C0.315979 20.84 3.99598 24 7.90265 24C12.0893 24 15.4893 20.6 15.4893 16.4V8.01333C17.16 9.21313 19.1658 9.85686 21.2226 9.85333V5.73333C21.2226 5.73333 18.716 5.85333 16.9026 3.76Z" fill="white"/>
</svg>
